<?xml version="1.0" encoding="iso-8859-1"?>
<!-- Generator: Adobe Illustrator 19.0.0, SVG Export Plug-In . SVG Version: 6.00 Build 0)  -->
<svg version="1.1" id="Layer_1" xmlns="http://www.w3.org/2000/svg" xmlns:xlink="http://www.w3.org/1999/xlink" x="0px" y="0px"
	 viewBox="0 0 512 512" style="enable-background:new 0 0 512 512;" xml:space="preserve">
<path style="fill:#528DDE;" d="M139.764,272.026h53.887v221.846c0,4.38,3.549,7.929,7.929,7.929h91.369
	c4.38,0,7.929-3.549,7.929-7.929V273.071h61.948c4.028,0,7.417-3.023,7.877-7.023l9.409-81.672c0.258-2.247-0.454-4.498-1.957-6.183
	c-1.505-1.687-3.658-2.653-5.919-2.653H300.88v-51.196c0-15.433,8.309-23.259,24.7-23.259c2.336,0,46.654,0,46.654,0
	c4.38,0,7.929-3.55,7.929-7.929V18.187c0-4.38-3.549-7.929-7.929-7.929h-64.297c-0.452-0.022-1.458-0.059-2.943-0.059
	c-11.156,0-49.934,2.19-80.566,30.37c-33.94,31.228-29.222,68.618-28.095,75.101v59.867h-56.571c-4.38,0-7.929,3.549-7.929,7.929
	v80.629C131.835,268.476,135.384,272.026,139.764,272.026z"/>
<g>
	<path style="fill:#3B6197;" d="M292.949,512h-91.368c-9.996,0-18.128-8.133-18.128-18.128V282.225h-43.688
		c-9.996,0-18.128-8.133-18.128-18.13v-80.629c0-9.996,8.133-18.128,18.128-18.128h46.371v-48.84
		c-1.532-9.878-5.015-49.941,31.386-83.435C250.871,2.385,292.906,0,304.994,0c1.495,0,2.562,0.033,3.176,0.059h64.065
		c9.996,0,18.128,8.132,18.128,18.128v74.967c0,9.996-8.133,18.128-18.128,18.128h-46.654c-12.191,0-14.502,4.59-14.502,13.06
		v40.997h61.156c5.162,0,10.093,2.21,13.53,6.063c3.437,3.855,5.068,9.009,4.477,14.14l-9.409,81.672
		c-1.053,9.153-8.795,16.056-18.009,16.056h-51.749v210.601C311.077,503.867,302.944,512,292.949,512z M203.85,491.602h86.828
		v-218.53c0-5.633,4.567-10.199,10.199-10.199h59.924l8.886-77.133h-68.807c-5.632,0-10.199-4.566-10.199-10.199v-51.196
		c0-20.95,13.047-33.458,34.901-33.458h44.385V20.458h-62.026c-0.168,0-0.336-0.004-0.504-0.012
		c-0.156-0.008-1.009-0.046-2.442-0.046c-10.222,0-45.745,1.996-73.661,27.677c-29.868,27.482-26.025,59.672-24.95,65.847
		c0.1,0.577,0.15,1.162,0.15,1.747v59.867c0,5.633-4.567,10.199-10.199,10.199h-54.301v76.09h51.617
		c5.632,0,10.199,4.566,10.199,10.199L203.85,491.602L203.85,491.602z"/>
	<path style="fill:#3B6197;" d="M224.381,369.211c-5.632,0-10.199-4.566-10.199-10.199v-5.1c0-5.633,4.567-10.199,10.199-10.199
		s10.199,4.566,10.199,10.199v5.1C234.581,364.645,230.013,369.211,224.381,369.211z"/>
	<path style="fill:#3B6197;" d="M224.381,479.363c-5.632,0-10.199-4.566-10.199-10.199v-77.514c0-5.633,4.567-10.199,10.199-10.199
		s10.199,4.566,10.199,10.199v77.514C234.581,474.796,230.013,479.363,224.381,479.363z"/>
</g>
<g>
</g>
<g>
</g>
<g>
</g>
<g>
</g>
<g>
</g>
<g>
</g>
<g>
</g>
<g>
</g>
<g>
</g>
<g>
</g>
<g>
</g>
<g>
</g>
<g>
</g>
<g>
</g>
<g>
</g>
</svg>
